<svg xmlns="http://www.w3.org/2000/svg" viewBox="0 0 279.18 36.84"><g id="レイヤー_2" data-name="レイヤー 2"><g id="レイヤー_1-2" data-name="レイヤー 1"><path d="M83.07,3.22,72.19,33.61H65.45L54.31,3.22h6.14L66,18.93c1,3,2,6.23,2.9,9.48.85-3.25,1.88-6.49,2.86-9.48L77.1,3.22Z"/><path d="M223.16,33.62,234,3.23h6.74l11.14,30.39h-6.14l-5.51-15.71c-1-3-2-6.23-2.9-9.47-.85,3.24-1.88,6.48-2.86,9.47l-5.38,15.71Z"/><path d="M90.1,3.22h5.76V33.61H90.1Z"/><path d="M104,23.58h5.67c.09,4.78,3.29,6.06,7.52,6.06,4,0,6.14-1.53,6.14-4.39,0-2.39-1.58-3.46-6.23-4.4l-2.56-.51c-5.89-1.11-9.77-3.71-9.77-9.22,0-5,4-8.58,11.26-8.58,8.54,0,12.17,4,12.38,9.73H122.8c-.21-3.24-1.88-5.08-6.7-5.08-3.67,0-5.46,1.45-5.46,3.76s1.4,3.54,5.93,4.48l2.64.51c7.17,1.41,10.08,4.19,10.08,9,0,6-4.7,9.35-12.29,9.35C108.89,34.3,104,30.58,104,23.58Z"/><path d="M137.19,3.22H143V33.61h-5.76Z"/><path d="M151.54,18.42c0-9.56,6.06-15.88,15.19-15.88s15.15,6.32,15.15,15.88S175.82,34.3,166.73,34.3,151.54,28,151.54,18.42Zm24.37,0c0-6.7-3.63-10.8-9.18-10.8s-9.18,4.1-9.18,10.8,3.63,10.8,9.18,10.8S175.91,25.12,175.91,18.42Z"/><path d="M216.12,3.22V33.61h-6.4l-8.45-13.53c-1.92-3-3.89-6.19-5.42-9.13.17,5.38.17,10.24.17,14.72v7.94h-5.55V3.22h6.4l8.49,13.53c1.71,2.78,3.84,6.28,5.38,9.14-.13-5.38-.17-10.25-.17-14.73V3.22Z"/><path d="M279.18,28.45v5.16H259V3.22h5.76V28.45Z"/><path d="M45.28,18.42,28.13,35.56a4.33,4.33,0,0,1-3.07,1.28H14.58L33,18.42,14.58,0H25.06a4.32,4.32,0,0,1,3.07,1.27Z"/><path d="M10.74,18.42,0,29.16H9.17a3.82,3.82,0,0,0,2.69-1.11l9.63-9.63L11.86,8.79A3.79,3.79,0,0,0,9.17,7.67H0Z"/></g></g></svg>