<svg xmlns="http://www.w3.org/2000/svg" viewBox="0 0 32 18" width="32" height="18"><path d="M31,1V17H1V1H31m1-1H0V18H32V0Z"/><path d="M8.26,10.14v2.78H7.32V5.81H10a2.61,2.61,0,0,1,1.82.6A2,2,0,0,1,12.44,8a2,2,0,0,1-.65,1.59,2.76,2.76,0,0,1-1.85.56Zm0-.77H10A1.72,1.72,0,0,0,11.1,9a1.3,1.3,0,0,0,.4-1,1.31,1.31,0,0,0-.4-1,1.57,1.57,0,0,0-1.1-.4H8.26Z"/><path d="M13.63,12.92V5.81h2a3.27,3.27,0,0,1,1.64.41,2.89,2.89,0,0,1,1.1,1.17,3.72,3.72,0,0,1,.39,1.74v.45a3.84,3.84,0,0,1-.38,1.77,2.76,2.76,0,0,1-1.11,1.16,3.37,3.37,0,0,1-1.68.41Zm.94-6.34v5.58h1a2.13,2.13,0,0,0,1.68-.68,2.75,2.75,0,0,0,.61-1.92V9.15a2.84,2.84,0,0,0-.57-1.89,2,2,0,0,0-1.62-.68Z"/><path d="M24.11,9.78h-3v3.14h-.94V5.81h4.4v.77H21.13V9h3Z"/></svg>